<?xml version="1.0" encoding="UTF-8" standalone="no"?>
<!DOCTYPE svg PUBLIC "-//W3C//DTD SVG 1.1//EN" "http://www.w3.org/Graphics/SVG/1.1/DTD/svg11.dtd">
<svg version="1.1" xmlns="http://www.w3.org/2000/svg" xmlns:xlink="http://www.w3.org/1999/xlink" preserveAspectRatio="xMidYMid meet" viewBox="0 0 640 640" width="640" height="640"><defs><path d="M104.67 398.04L195.64 307.05L129.49 307.05L71.61 364.96L104.67 398.04Z" id="b411rsFbTA"></path><path d="M21.98 315.33L129.49 207.82L195.64 207.82L55.06 348.42L21.98 315.33Z" id="a1zT4SsjAr"></path><path d="M129.49 422.84L195.64 422.84L137.75 364.96L104.67 398.04L129.49 422.84Z" id="ciflihe02"></path><path d="M137.75 364.96L104.67 398.04L153.74 381.04L137.75 364.96Z" id="i2aQ0x9Ca"></path><linearGradient id="gradientb1qYSC2cE" gradientUnits="userSpaceOnUse" x1="-5167.88" y1="-2116.91" x2="-5166.93" y2="-2117.87"><stop style="stop-color: #1a237e;stop-opacity: 0.4" offset="0%"></stop><stop style="stop-color: #1a237e;stop-opacity: 0" offset="100%"></stop></linearGradient><path d="M71.61 364.94L104.69 331.85L137.77 364.94L104.69 398.04L71.61 364.94Z" id="a1sdDkzMrH"></path><path d="M195.64 422.87L129.49 422.87L71.58 364.96L129.49 307.05L195.64 307.05L137.75 364.96L195.64 422.87Z" id="aqWhFFGrA"></path><radialGradient id="gradienta3r2b2o9FF" gradientUnits="userSpaceOnUse" cx="-3316.79" cy="-734.66" dx="-3606.03" dy="-836.31" r="306.59"><stop style="stop-color: #ffffff;stop-opacity: 0.1" offset="0%"></stop><stop style="stop-color: #ffffff;stop-opacity: 0" offset="100%"></stop></radialGradient><path d="M216.59 265.46L274.56 265.46L274.56 276.5L228.73 276.5L228.73 310.73L270.14 310.73L270.14 321.78L228.73 321.78L228.73 364.84L217.14 364.84L217.14 265.46L216.59 265.46Z" id="b8Hb3AcfX"></path><path d="M573.82 294.17L584.86 294.17L584.86 305.77C585.2 305.77 585.38 305.77 585.42 305.77C587.07 301.9 589.28 298.59 593.7 296.38C597.56 293.62 601.98 292.51 606.4 292.51C609.71 292.51 612.47 293.07 614.68 294.17C614.68 295.44 614.68 305.6 614.68 306.87C611.92 305.21 608.61 304.66 604.74 304.66C601.43 304.66 598.12 305.77 595.36 307.42C592.59 309.63 590.39 311.84 588.18 315.15C586.52 318.46 585.42 321.78 585.42 325.64C585.42 328.29 585.42 341.54 585.42 365.4L573.82 365.4L573.82 294.17Z" id="c2vOzIBNYd"></path><path d="M288.37 265.46L299.96 265.46L299.96 365.4L288.37 365.4L288.37 265.46Z" id="b2e4KSAtM"></path><path d="M527.41 292.53L527.93 292.54L528.46 292.56L528.98 292.59L529.49 292.63L530 292.67L530.51 292.71L531.02 292.77L531.51 292.82L532.01 292.89L532.5 292.96L532.99 293.04L533.47 293.12L533.95 293.21L534.42 293.31L534.89 293.41L535.36 293.52L535.82 293.64L536.28 293.76L536.73 293.88L537.18 294.02L537.62 294.16L538.07 294.3L538.5 294.46L538.93 294.61L539.36 294.78L539.79 294.95L540.21 295.13L540.62 295.31L541.04 295.5L541.44 295.69L541.85 295.9L542.25 296.1L542.64 296.32L543.03 296.54L543.42 296.77L543.8 297L544.18 297.24L544.56 297.48L544.93 297.73L545.3 297.98L545.66 298.24L546.02 298.49L546.37 298.75L546.72 299.02L547.07 299.28L547.41 299.55L547.74 299.82L548.08 300.09L548.41 300.36L548.73 300.64L549.05 300.93L549.37 301.21L549.68 301.5L549.99 301.79L550.3 302.09L550.6 302.39L550.89 302.7L551.18 303L551.47 303.32L551.76 303.63L552.04 303.96L552.31 304.28L552.58 304.61L552.85 304.95L553.11 305.29L553.37 305.63L553.63 305.98L553.88 306.33L554.12 306.69L554.36 307.06L554.6 307.43L554.84 307.81L555.07 308.19L555.29 308.57L555.51 308.97L555.73 309.37L555.94 309.77L556.15 310.18L556.36 310.6L556.56 311.02L556.76 311.43L556.95 311.86L557.14 312.28L557.32 312.71L557.5 313.14L557.67 313.57L557.84 314L558.01 314.44L558.17 314.87L558.32 315.32L558.48 315.76L558.62 316.21L558.76 316.66L558.9 317.11L559.03 317.56L559.16 318.02L559.28 318.48L559.4 318.95L559.51 319.42L559.61 319.89L559.72 320.36L559.81 320.84L559.9 321.32L559.99 321.8L560.06 322.29L560.14 322.78L560.21 323.27L560.27 323.77L560.33 324.27L560.38 324.78L560.42 325.29L560.46 325.8L560.49 326.31L560.52 326.83L560.54 327.36L560.56 327.89L560.57 328.42L560.57 328.96L560.57 329.08L560.57 329.2L560.57 329.32L560.57 329.44L560.57 329.55L560.57 329.67L560.57 329.78L560.57 329.89L560.56 330L560.56 330.1L560.56 330.21L560.56 330.31L560.55 330.41L560.55 330.52L560.54 330.62L560.54 330.71L560.53 330.81L560.52 330.91L560.51 331L560.5 331.09L560.49 331.19L560.48 331.28L560.47 331.37L560.45 331.46L560.44 331.55L560.42 331.64L560.4 331.72L560.38 331.81L560.36 331.9L560.34 331.98L560.31 332.07L560.29 332.15L560.26 332.24L560.23 332.32L560.2 332.41L560.17 332.49L560.13 332.57L560.1 332.65L560.06 332.74L560.02 332.82L503.15 332.82L503.19 333.23L503.23 333.64L503.28 334.04L503.33 334.44L503.38 334.84L503.44 335.23L503.49 335.62L503.55 336.01L503.61 336.39L503.67 336.76L503.74 337.14L503.81 337.51L503.88 337.87L503.95 338.24L504.03 338.6L504.11 338.95L504.19 339.3L504.28 339.65L504.37 340L504.46 340.34L504.55 340.68L504.65 341.02L504.75 341.35L504.86 341.69L504.96 342.01L505.08 342.34L505.19 342.66L505.31 342.98L505.43 343.3L505.55 343.61L505.68 343.92L505.82 344.23L505.95 344.54L506.09 344.85L506.24 345.15L506.38 345.45L506.53 345.74L506.69 346.04L506.85 346.33L507.01 346.62L507.18 346.91L507.35 347.2L507.53 347.47L507.71 347.75L507.89 348.02L508.08 348.29L508.27 348.55L508.46 348.81L508.66 349.07L508.86 349.32L509.06 349.56L509.27 349.8L509.48 350.04L509.69 350.28L509.91 350.51L510.12 350.73L510.34 350.95L510.56 351.17L510.79 351.38L511.02 351.59L511.24 351.8L511.48 352L511.71 352.2L511.94 352.39L512.18 352.58L512.42 352.76L512.65 352.94L512.9 353.12L513.14 353.29L513.38 353.46L513.62 353.62L513.87 353.78L514.11 353.93L514.36 354.09L514.61 354.23L514.85 354.38L515.1 354.51L515.35 354.65L515.6 354.78L515.85 354.91L516.14 355.03L516.42 355.15L516.71 355.27L516.99 355.39L517.27 355.5L517.55 355.61L517.83 355.72L518.11 355.83L518.38 355.93L518.66 356.04L518.93 356.14L519.21 356.23L519.48 356.33L519.75 356.42L520.02 356.51L520.29 356.59L520.56 356.68L520.83 356.76L521.1 356.83L521.37 356.91L521.64 356.98L521.91 357.05L522.18 357.11L522.45 357.17L522.72 357.23L522.99 357.28L523.26 357.34L523.53 357.38L523.8 357.43L524.08 357.47L524.35 357.51L524.63 357.54L524.91 357.57L525.18 357.59L525.46 357.62L525.75 357.63L526.03 357.65L526.31 357.66L526.6 357.66L526.89 357.67L527.59 357.66L528.28 357.63L528.96 357.59L529.62 357.53L530.28 357.46L530.93 357.37L531.57 357.26L532.2 357.14L532.82 357L533.43 356.85L534.03 356.68L534.62 356.49L535.2 356.29L535.78 356.07L536.34 355.83L536.9 355.58L537.45 355.32L537.98 355.03L538.52 354.74L539.04 354.42L539.55 354.09L540.06 353.75L540.55 353.39L541.04 353.02L541.52 352.63L542 352.22L542.46 351.8L542.92 351.36L543.37 350.91L543.82 350.45L544.25 349.96L544.68 349.47L545.1 348.96L545.52 348.43L545.93 347.89L546.33 347.34L546.72 346.77L547.11 346.18L547.5 345.58L547.87 344.97L557.81 349.94L557.56 350.35L557.31 350.76L557.05 351.17L556.8 351.58L556.54 351.98L556.28 352.38L556.01 352.78L555.75 353.17L555.48 353.57L555.2 353.96L554.93 354.34L554.65 354.73L554.37 355.11L554.08 355.48L553.79 355.86L553.5 356.23L553.2 356.59L552.9 356.95L552.6 357.31L552.29 357.67L551.98 358.02L551.66 358.36L551.34 358.7L551.01 359.04L550.68 359.37L550.35 359.7L550.01 360.02L549.66 360.34L549.31 360.65L548.96 360.96L548.6 361.27L548.23 361.56L547.86 361.85L547.49 362.14L547.11 362.42L546.72 362.7L546.33 362.97L545.93 363.23L545.52 363.49L545.11 363.74L544.78 363.9L544.44 364.07L544.09 364.23L543.74 364.39L543.38 364.54L543.01 364.69L542.64 364.84L542.26 364.99L541.88 365.13L541.49 365.28L541.09 365.41L540.69 365.55L540.28 365.68L539.86 365.81L539.44 365.93L539.01 366.05L538.58 366.17L538.14 366.29L537.69 366.4L537.24 366.5L536.78 366.6L536.32 366.7L535.85 366.79L535.37 366.88L534.89 366.96L534.4 367.04L533.9 367.12L533.4 367.19L532.89 367.25L532.38 367.31L531.86 367.37L531.33 367.42L530.8 367.46L530.26 367.5L529.71 367.53L529.16 367.56L528.6 367.58L528.04 367.59L527.47 367.6L526.89 367.61L526.39 367.6L525.9 367.59L525.41 367.58L524.92 367.56L524.43 367.53L523.95 367.49L523.46 367.45L522.98 367.41L522.5 367.35L522.02 367.29L521.55 367.23L521.08 367.16L520.6 367.08L520.14 367L519.67 366.91L519.2 366.81L518.74 366.71L518.28 366.6L517.82 366.48L517.37 366.36L516.91 366.24L516.46 366.1L516.01 365.96L515.56 365.82L515.11 365.66L514.67 365.51L514.23 365.34L513.79 365.17L513.35 364.99L512.91 364.81L512.48 364.62L512.05 364.42L511.62 364.22L511.19 364.01L510.77 363.8L510.34 363.58L509.92 363.35L509.5 363.12L509.08 362.88L508.67 362.64L508.26 362.39L507.85 362.13L507.45 361.87L507.06 361.61L506.67 361.34L506.29 361.07L505.92 360.8L505.55 360.52L505.18 360.23L504.82 359.94L504.47 359.65L504.12 359.36L503.77 359.06L503.43 358.75L503.1 358.44L502.77 358.13L502.44 357.81L502.12 357.49L501.8 357.17L501.49 356.84L501.18 356.51L500.88 356.17L500.58 355.83L500.28 355.48L499.99 355.13L499.7 354.78L499.41 354.42L499.13 354.06L498.85 353.69L498.58 353.32L498.3 352.94L498.03 352.56L497.77 352.18L497.5 351.79L497.24 351.4L496.98 351.01L496.73 350.61L496.47 350.2L496.22 349.8L495.97 349.38L495.77 348.97L495.56 348.55L495.37 348.12L495.18 347.7L494.99 347.26L494.8 346.83L494.63 346.39L494.45 345.94L494.28 345.5L494.12 345.05L493.95 344.59L493.8 344.13L493.65 343.67L493.5 343.2L493.36 342.74L493.22 342.26L493.09 341.79L492.96 341.31L492.84 340.83L492.73 340.34L492.61 339.86L492.51 339.36L492.41 338.87L492.31 338.37L492.22 337.87L492.14 337.37L492.06 336.86L491.99 336.36L491.92 335.84L491.85 335.33L491.8 334.81L491.75 334.3L491.7 333.77L491.66 333.25L491.63 332.72L491.6 332.2L491.58 331.67L491.57 331.13L491.56 330.6L491.55 330.06L491.56 329.56L491.57 329.07L491.58 328.57L491.6 328.07L491.63 327.58L491.66 327.08L491.7 326.59L491.75 326.09L491.8 325.6L491.85 325.11L491.92 324.62L491.99 324.13L492.06 323.64L492.14 323.15L492.22 322.66L492.31 322.18L492.41 321.7L492.51 321.22L492.61 320.74L492.73 320.26L492.84 319.78L492.96 319.31L493.09 318.84L493.22 318.37L493.36 317.91L493.5 317.44L493.65 316.98L493.8 316.52L493.95 316.07L494.12 315.62L494.28 315.17L494.45 314.72L494.63 314.28L494.8 313.84L494.99 313.41L495.18 312.98L495.37 312.55L495.56 312.12L495.77 311.7L495.97 311.29L496.18 310.87L496.4 310.46L496.62 310.05L496.85 309.65L497.08 309.24L497.32 308.84L497.57 308.44L497.82 308.05L498.07 307.66L498.33 307.27L498.6 306.88L498.87 306.5L499.15 306.12L499.43 305.74L499.72 305.37L500.01 305L500.3 304.63L500.6 304.27L500.91 303.91L501.22 303.56L501.53 303.21L501.84 302.86L502.17 302.52L502.49 302.18L502.82 301.85L503.15 301.52L503.48 301.2L503.82 300.88L504.17 300.57L504.51 300.26L504.86 299.96L505.21 299.66L505.56 299.37L505.92 299.08L506.28 298.8L506.64 298.53L507.01 298.26L507.38 297.99L507.75 297.73L508.12 297.48L508.49 297.24L508.87 297L509.25 296.77L509.64 296.54L510.03 296.32L510.43 296.1L510.83 295.9L511.23 295.69L511.64 295.5L512.05 295.31L512.47 295.13L512.89 294.95L513.31 294.78L513.74 294.61L514.17 294.46L514.61 294.3L515.05 294.16L515.5 294.02L515.95 293.88L516.4 293.76L516.86 293.64L517.32 293.52L517.78 293.41L518.25 293.31L518.73 293.21L519.21 293.12L519.69 293.04L520.18 292.96L520.67 292.89L521.16 292.82L521.66 292.77L522.16 292.71L522.67 292.67L523.18 292.63L523.7 292.59L524.22 292.56L524.74 292.54L525.27 292.53L525.8 292.52L526.34 292.51L526.87 292.52L527.41 292.53ZM523.67 302.5L522.9 302.56L522.14 302.64L521.39 302.74L520.65 302.87L519.92 303.03L519.19 303.2L518.48 303.41L517.78 303.64L517.09 303.9L516.41 304.18L515.75 304.49L515.09 304.82L514.45 305.19L513.82 305.58L513.2 306L512.6 306.45L512.01 306.93L511.44 307.44L510.88 307.97L510.34 308.46L509.82 308.97L509.32 309.49L508.84 310.04L508.38 310.61L507.94 311.21L507.52 311.82L507.12 312.45L506.73 313.1L506.36 313.77L506.01 314.46L505.67 315.17L505.34 315.9L505.03 316.64L504.73 317.41L504.44 318.19L504.16 318.98L503.89 319.8L503.64 320.62L503.39 321.47L503.15 322.33L547.32 322.33L547.31 321.93L547.29 321.53L547.25 321.12L547.2 320.7L547.14 320.28L547.06 319.85L546.97 319.43L546.87 319L546.75 318.56L546.63 318.13L546.49 317.7L546.34 317.26L546.18 316.83L546.01 316.4L545.83 315.97L545.64 315.55L545.44 315.13L545.23 314.71L545.02 314.3L544.79 313.89L544.56 313.5L544.32 313.1L544.07 312.71L543.81 312.31L543.55 311.92L543.27 311.53L542.99 311.14L542.7 310.76L542.39 310.37L542.08 309.99L541.76 309.61L541.42 309.24L541.07 308.87L540.72 308.5L540.35 308.14L539.96 307.78L539.57 307.43L539.16 307.08L538.73 306.74L538.3 306.41L537.85 306.08L537.38 305.77L536.9 305.46L536.42 305.16L535.93 304.89L535.42 304.62L534.91 304.38L534.39 304.14L533.86 303.93L533.32 303.72L532.77 303.53L532.21 303.36L531.64 303.2L531.06 303.06L530.46 302.93L529.86 302.82L529.24 302.72L528.6 302.64L527.96 302.57L527.3 302.52L526.62 302.48L525.94 302.46L525.23 302.45L524.45 302.46L523.67 302.5Z" id="g48BB5vKV"></path><path d="M323.7 359.88C319.29 354.91 317.08 347.73 317.08 338.89C317.08 335.91 317.08 321 317.08 294.17L328.67 294.17C328.67 320.01 328.67 334.37 328.67 337.24C328.67 343.86 330.33 348.83 333.09 352.15C336.4 355.46 340.27 357.11 345.79 357.11C349.65 357.11 353.52 356.01 356.28 353.8C359.59 351.59 361.8 348.83 363.46 345.52C365.11 342.21 366.22 338.34 366.22 334.48C366.22 331.79 366.22 318.35 366.22 294.17L377.81 294.17L377.81 365.4L366.77 365.4L366.77 354.91C366.44 354.91 366.25 354.91 366.22 354.91C364.01 358.22 361.25 361.53 356.83 363.74C352.97 366.5 348.55 367.61 343.58 367.61C334.75 367.61 328.67 364.84 323.7 359.88Z" id="ce7C5xxEq"></path><path d="M466.15 364.84C463.95 363.74 461.74 362.64 460.08 360.98C458.42 359.32 456.77 357.11 455.66 354.91C454.56 352.7 454.01 349.94 454.01 346.62C454.01 343.83 454.01 329.84 454.01 304.66L442.41 304.66L442.41 294.17L455.11 294.17L455.11 274.29L466.71 274.29L466.71 294.17L483.82 294.17L483.82 304.66L466.71 304.66C466.71 327.85 466.71 340.73 466.71 343.31C466.71 347.18 467.26 349.94 468.92 352.15C470.57 354.35 473.33 355.46 476.65 355.46C479.41 355.46 482.17 354.91 484.38 353.25C484.38 354.41 484.38 363.69 484.38 364.84C482.72 365.4 481.61 365.95 479.96 366.5C478.85 366.5 476.65 366.5 474.44 366.5C471.68 366.5 468.92 365.95 466.15 364.84Z" id="b1fUup2XPD"></path><path d="M415.91 364.84C413.7 363.74 411.49 362.64 409.84 360.98C408.18 359.32 406.52 357.11 405.42 354.91C404.31 352.7 403.76 349.94 403.76 346.62C403.76 343.83 403.76 329.84 403.76 304.66L391.06 304.66L391.06 294.17L403.76 294.17L403.76 274.29L415.36 274.29L415.36 294.17L432.47 294.17L432.47 304.66L415.36 304.66C415.36 327.85 415.36 340.73 415.36 343.31C415.36 347.18 415.91 349.94 417.57 352.15C419.22 354.35 421.98 355.46 425.3 355.46C428.06 355.46 430.82 354.91 433.03 353.25C433.03 354.41 433.03 363.69 433.03 364.84C431.37 365.4 430.27 365.95 428.61 366.5C428.61 366.5 426.4 366.5 424.19 366.5C421.43 366.5 418.67 365.95 415.91 364.84Z" id="a1ZFRa8zz"></path></defs><g><g><g><use xlink:href="#b411rsFbTA" opacity="1" fill="#39cefd" fill-opacity="1"></use><g><use xlink:href="#b411rsFbTA" opacity="1" fill-opacity="0" stroke="#000000" stroke-width="1" stroke-opacity="0"></use></g></g><g><use xlink:href="#a1zT4SsjAr" opacity="1" fill="#39cefd" fill-opacity="1"></use><g><use xlink:href="#a1zT4SsjAr" opacity="1" fill-opacity="0" stroke="#000000" stroke-width="1" stroke-opacity="0"></use></g></g><g><use xlink:href="#ciflihe02" opacity="1" fill="#03569b" fill-opacity="1"></use><g><use xlink:href="#ciflihe02" opacity="1" fill-opacity="0" stroke="#000000" stroke-width="1" stroke-opacity="0"></use></g></g><g><use xlink:href="#i2aQ0x9Ca" opacity="1" fill="url(#gradientb1qYSC2cE)"></use><g><use xlink:href="#i2aQ0x9Ca" opacity="1" fill-opacity="0" stroke="#000000" stroke-width="1" stroke-opacity="0"></use></g></g><g><use xlink:href="#a1sdDkzMrH" opacity="1" fill="#16b9fd" fill-opacity="1"></use><g><use xlink:href="#a1sdDkzMrH" opacity="1" fill-opacity="0" stroke="#000000" stroke-width="1" stroke-opacity="0"></use></g></g><g><use xlink:href="#aqWhFFGrA" opacity="1" fill="url(#gradienta3r2b2o9FF)"></use><g><use xlink:href="#aqWhFFGrA" opacity="1" fill-opacity="0" stroke="#000000" stroke-width="1" stroke-opacity="0"></use></g></g><g><g></g><use xlink:href="#b8Hb3AcfX" opacity="1" fill="#ffffff" fill-opacity="1"></use><g><use xlink:href="#b8Hb3AcfX" opacity="1" fill-opacity="0" stroke="#ec0e0e" stroke-width="15" stroke-opacity="0"></use></g></g><g><g></g><use xlink:href="#c2vOzIBNYd" opacity="1" fill="#ffffff" fill-opacity="1"></use><g><use xlink:href="#c2vOzIBNYd" opacity="1" fill-opacity="0" stroke="#ec0e0e" stroke-width="15" stroke-opacity="0"></use></g></g><g><g></g><use xlink:href="#b2e4KSAtM" opacity="1" fill="#ffffff" fill-opacity="1"></use><g><use xlink:href="#b2e4KSAtM" opacity="1" fill-opacity="0" stroke="#ec0e0e" stroke-width="15" stroke-opacity="0"></use></g></g><g><g></g><use xlink:href="#g48BB5vKV" opacity="1" fill="#ffffff" fill-opacity="1"></use><g><use xlink:href="#g48BB5vKV" opacity="1" fill-opacity="0" stroke="#ec0e0e" stroke-width="15" stroke-opacity="0"></use></g></g><g><g></g><use xlink:href="#ce7C5xxEq" opacity="1" fill="#ffffff" fill-opacity="1"></use><g><use xlink:href="#ce7C5xxEq" opacity="1" fill-opacity="0" stroke="#ec0e0e" stroke-width="15" stroke-opacity="0"></use></g></g><g><g></g><use xlink:href="#b1fUup2XPD" opacity="1" fill="#ffffff" fill-opacity="1"></use><g><use xlink:href="#b1fUup2XPD" opacity="1" fill-opacity="0" stroke="#ec0e0e" stroke-width="15" stroke-opacity="0"></use></g></g><g><g></g><use xlink:href="#a1ZFRa8zz" opacity="1" fill="#ffffff" fill-opacity="1"></use><g><use xlink:href="#a1ZFRa8zz" opacity="1" fill-opacity="0" stroke="#ec0e0e" stroke-width="15" stroke-opacity="0"></use></g></g></g></g></svg>